<svg xmlns="http://www.w3.org/2000/svg" width="387.075" height="388.36" viewBox="0 0 495.456 497.101"><!-- SRC: https://www.svgrepo.com/svg/500752/alarm-clock --> <path d="M108.588 25.657a80 80 0 0 0-69.666 124.177h.032L62.41 126.38a48 48 0 0 1 64-64l23.424-23.425a80 80 0 0 0-41.246-13.297zm285.067.07a80 80 0 0 0-47.98 13.227l23.423 23.425a48 48 0 0 1 64 64l23.456 23.455a80 80 0 0 0-62.899-124.107Zm-143.98 31.98a192 192 0 0 0-110.067 348.65l-23.79 41.206a16 16 0 1 0 27.712 16l23.713-41.071a192 192 0 0 0 82.431 19.215 192 192 0 0 0 82.431-19.215l23.713 41.07a16 16 0 1 0 27.712-16l-23.79-41.204A192 192 0 0 0 249.674 57.707Zm0 32a160 160 0 0 1 0 320 160 160 0 0 1 0-320zm-20.945 48.782a16 16 0 0 0-11.056 15.218v112a16 16 0 0 0 16 16h96a16 16 0 0 0 0-32h-80v-96a16 16 0 0 0-20.944-15.218z" style="font-variation-settings:normal;opacity:1;fill:#000;fill-opacity:1;stroke:#fff;stroke-width:51.2;stroke-linecap:butt;stroke-linejoin:round;stroke-miterlimit:4;stroke-dasharray:none;stroke-dashoffset:0;stroke-opacity:1;stop-color:#000;stop-opacity:1"/><path d="M108.588 25.657a80 80 0 0 0-69.666 124.177h.032L62.41 126.38a48 48 0 0 1 64-64l23.424-23.425a80 80 0 0 0-41.246-13.297zm285.067.07a80 80 0 0 0-47.98 13.227l23.423 23.425a48 48 0 0 1 64 64l23.456 23.455a80 80 0 0 0-62.899-124.107Zm-143.98 31.98a192 192 0 0 0-110.067 348.65l-23.79 41.206a16 16 0 1 0 27.712 16l23.713-41.071a192 192 0 0 0 82.431 19.215 192 192 0 0 0 82.431-19.215l23.713 41.07a16 16 0 1 0 27.712-16l-23.79-41.204A192 192 0 0 0 249.674 57.707Zm0 32a160 160 0 0 1 0 320 160 160 0 0 1 0-320zm-20.945 48.782a16 16 0 0 0-11.056 15.218v112a16 16 0 0 0 16 16h96a16 16 0 0 0 0-32h-80v-96a16 16 0 0 0-20.944-15.218z" style="font-variation-settings:normal;vector-effect:none;fill:#000;fill-opacity:1;stroke-width:1;stroke-linecap:butt;stroke-linejoin:miter;stroke-miterlimit:4;stroke-dasharray:none;stroke-dashoffset:0;stroke-opacity:1;-inkscape-stroke:none;stop-color:#000"/></svg>